<svg width="267" height="302" viewBox="0 0 267 302" fill="none" xmlns="http://www.w3.org/2000/svg">
<g filter="url(#filter0_d_20_2175)">
<path d="M212.784 126.44L162.46 198.042L127.32 188.951L101.953 163.124L138.814 83.7331L212.784 126.44Z" fill="#264DE4"/>
<path d="M159.466 189.904L202.47 128.717L172.235 111.26L131.071 182.558L159.466 189.904Z" fill="#2965F1"/>
<path d="M134.514 126.82L129.998 136.56L150.72 148.524L156.067 139.264L134.514 126.82Z" fill="#EBEBEB"/>
<path d="M166.888 120.521L166.856 120.502L143.668 107.114L139.163 116.861L161.542 129.781L166.888 120.521Z" fill="#EBEBEB"/>
<path d="M136.619 172.948L142.181 163.314L142.135 163.301L133.429 154.562L137.034 146.796L132.022 143.902L127.738 141.429L120.641 156.718L136.569 172.935L136.619 172.948Z" fill="#EBEBEB"/>
<path d="M162.091 155.089L154.083 166.478L142.145 163.303L136.583 172.937L158.605 178.636L159.647 177.152L175.899 154.029L177.56 151.673L190.053 133.895L166.856 120.502L161.51 129.763L174.558 137.296L168.241 146.292L156.035 139.245L150.688 148.505L162.091 155.089Z" fill="white"/>
<rect x="118.823" y="24.7724" width="179" height="179" rx="31.5" transform="rotate(30 118.823 24.7724)" stroke="#D9D9D9"/>
</g>
<defs>
<filter id="filter0_d_20_2175" x="-11.3605" y="-11.9106" width="325.885" height="325.885" filterUnits="userSpaceOnUse" color-interpolation-filters="sRGB">
<feFlood flood-opacity="0" result="BackgroundImageFix"/>
<feColorMatrix in="SourceAlpha" type="matrix" values="0 0 0 0 0 0 0 0 0 0 0 0 0 0 0 0 0 0 127 0" result="hardAlpha"/>
<feOffset dy="4"/>
<feGaussianBlur stdDeviation="20"/>
<feComposite in2="hardAlpha" operator="out"/>
<feColorMatrix type="matrix" values="0 0 0 0 0.0367917 0 0 0 0 0.0348958 0 0 0 0 0.0484375 0 0 0 0.1 0"/>
<feBlend mode="normal" in2="BackgroundImageFix" result="effect1_dropShadow_20_2175"/>
<feBlend mode="normal" in="SourceGraphic" in2="effect1_dropShadow_20_2175" result="shape"/>
</filter>
</defs>
</svg>
