<svg width="303" height="303" viewBox="0 0 303 303" fill="none" xmlns="http://www.w3.org/2000/svg">
<g filter="url(#filter0_d_20_2151)">
<g clip-path="url(#clip0_20_2151)">
<path d="M220.243 129.079L133.641 79.0791L83.6409 165.682L170.243 215.682L220.243 129.079Z" fill="#F7DF1E"/>
<path d="M152.753 180.325C152.853 184.18 153.914 187.584 157.928 189.902C161.3 191.849 164.427 191.407 165.771 189.078C167.382 186.288 165.74 184.022 162.966 180.255L161.435 178.208C157.007 172.315 154.915 166.929 158.741 160.303C162.265 154.2 169.598 152.238 176.865 156.434C182.04 159.422 184.72 163.37 184.678 169.633L175.992 170.043C176.041 166.735 175.105 164.881 172.768 163.532C170.384 162.155 168 162.795 166.86 164.771C165.45 167.212 166.392 169.073 169.01 172.601L170.542 174.647C175.744 181.605 177.903 186.881 173.979 193.678C169.749 201.005 161.676 201.696 153.946 197.233C146.389 192.869 143.585 186.449 143.921 180.349L152.753 180.325ZM123.598 164.433C123.567 167.439 123.623 170.028 126.419 171.642C129.092 173.186 131.383 173.113 133.732 169.046L149.708 141.374L157.846 146.073L141.806 173.854C136.941 182.281 129.786 183.264 122.575 179.1C116.059 175.338 114.232 169.788 114.658 164.618L123.598 164.433Z" fill="black"/>
</g>
<rect x="119.183" y="25.1211" width="179" height="179" rx="31.5" transform="rotate(30 119.183 25.1211)" stroke="#D9D9D9"/>
</g>
<defs>
<filter id="filter0_d_20_2151" x="-11.0001" y="-11.5619" width="325.885" height="325.885" filterUnits="userSpaceOnUse" color-interpolation-filters="sRGB">
<feFlood flood-opacity="0" result="BackgroundImageFix"/>
<feColorMatrix in="SourceAlpha" type="matrix" values="0 0 0 0 0 0 0 0 0 0 0 0 0 0 0 0 0 0 127 0" result="hardAlpha"/>
<feOffset dy="4"/>
<feGaussianBlur stdDeviation="20"/>
<feComposite in2="hardAlpha" operator="out"/>
<feColorMatrix type="matrix" values="0 0 0 0 0.0367917 0 0 0 0 0.0348958 0 0 0 0 0.0484375 0 0 0 0.1 0"/>
<feBlend mode="normal" in2="BackgroundImageFix" result="effect1_dropShadow_20_2151"/>
<feBlend mode="normal" in="SourceGraphic" in2="effect1_dropShadow_20_2151" result="shape"/>
</filter>
<clipPath id="clip0_20_2151">
<rect x="119" y="24.4381" width="180" height="180" rx="32" transform="rotate(30 119 24.4381)" fill="white"/>
</clipPath>
</defs>
</svg>
