<svg width="303" height="196" viewBox="0 0 303 196" fill="none" xmlns="http://www.w3.org/2000/svg">
<g filter="url(#filter0_d_20_2131)">
<path d="M147.034 48.179C151.251 50.6135 156.643 49.1688 159.077 44.952C161.512 40.7353 160.067 35.3434 155.85 32.9088C151.634 30.4743 146.242 31.9191 143.807 36.1358C141.373 40.3526 142.817 45.7445 147.034 48.179Z" fill="#61DAFB"/>
<path d="M142.411 56.1865C165.037 69.2499 187.423 72.8364 192.411 64.1972C197.399 55.558 183.1 37.9647 160.473 24.9013C137.847 11.8379 115.461 8.25142 110.473 16.8906C105.486 25.5298 119.784 43.1231 142.411 56.1865Z" stroke="#61DAFB" stroke-width="5"/>
<path d="M133.38 40.5439C133.38 66.6706 141.466 87.8505 151.442 87.8505C161.418 87.8505 169.505 66.6706 169.505 40.5439C169.505 14.4171 161.418 -6.76276 151.442 -6.76276C141.466 -6.76276 133.38 14.4171 133.38 40.5439Z" stroke="#61DAFB" stroke-width="5"/>
<path d="M142.411 24.9013C119.784 37.9646 105.486 55.558 110.473 64.1972C115.461 72.8364 137.847 69.2498 160.473 56.1865C183.1 43.1231 197.399 25.5297 192.411 16.8906C187.423 8.25139 165.037 11.8379 142.411 24.9013Z" stroke="#61DAFB" stroke-width="5"/>
<rect x="118.683" y="-81.7154" width="179" height="179" rx="31.5" transform="rotate(30 118.683 -81.7154)" stroke="#D9D9D9"/>
</g>
<defs>
<filter id="filter0_d_20_2131" x="-11.5001" y="-118.398" width="325.885" height="325.885" filterUnits="userSpaceOnUse" color-interpolation-filters="sRGB">
<feFlood flood-opacity="0" result="BackgroundImageFix"/>
<feColorMatrix in="SourceAlpha" type="matrix" values="0 0 0 0 0 0 0 0 0 0 0 0 0 0 0 0 0 0 127 0" result="hardAlpha"/>
<feOffset dy="4"/>
<feGaussianBlur stdDeviation="20"/>
<feComposite in2="hardAlpha" operator="out"/>
<feColorMatrix type="matrix" values="0 0 0 0 0.0367917 0 0 0 0 0.0348958 0 0 0 0 0.0484375 0 0 0 0.1 0"/>
<feBlend mode="normal" in2="BackgroundImageFix" result="effect1_dropShadow_20_2131"/>
<feBlend mode="normal" in="SourceGraphic" in2="effect1_dropShadow_20_2131" result="shape"/>
</filter>
</defs>
</svg>
